<?xml version="1.0" encoding="UTF-8" standalone="no"?>
<svg
   xmlns:dc="http://purl.org/dc/elements/1.1/"
   xmlns:cc="http://creativecommons.org/ns#"
   xmlns:rdf="http://www.w3.org/1999/02/22-rdf-syntax-ns#"
   xmlns:svg="http://www.w3.org/2000/svg"
   xmlns="http://www.w3.org/2000/svg"
   xmlns:sodipodi="http://sodipodi.sourceforge.net/DTD/sodipodi-0.dtd"
   xmlns:inkscape="http://www.inkscape.org/namespaces/inkscape"
   version="1.0"
   width="900"
   height="600"
   id="Flag_of_the_Holy_Roman_Empire_between_1200_and_1350"
   inkscape:version="0.48.2 r9819"
   sodipodi:docname="Placeholder flag.svg">
  <metadata
     id="metadata10">
    <rdf:RDF>
      <cc:Work
         rdf:about="">
        <dc:format>image/svg+xml</dc:format>
        <dc:type
           rdf:resource="http://purl.org/dc/dcmitype/StillImage" />
      </cc:Work>
    </rdf:RDF>
  </metadata>
  <defs
     id="defs8" />
  <sodipodi:namedview
     pagecolor="#ffffff"
     bordercolor="#666666"
     borderopacity="1"
     objecttolerance="10"
     gridtolerance="10"
     guidetolerance="10"
     inkscape:pageopacity="0"
     inkscape:pageshadow="2"
     inkscape:window-width="876"
     inkscape:window-height="747"
     id="namedview6"
     showgrid="false"
     inkscape:zoom="0.65"
     inkscape:cx="450"
     inkscape:cy="300"
     inkscape:window-x="159"
     inkscape:window-y="103"
     inkscape:window-maximized="0"
     inkscape:current-layer="Flag_of_the_Holy_Roman_Empire_between_1200_and_1350">
    <inkscape:grid
       type="xygrid"
       id="grid2822" />
  </sodipodi:namedview>
  <path
     d="M 0,0 0,200 900,200 900,0 0,0 z"
     style="fill:#bbbbbb"
     id="rect1308" />
  <path
     d="m 0,200 0,200 900,0 0,-200 -900,0 z"
     style="fill:#d4d4d4"
     id="rect1310" />
  <path
     d="m 0,400 0,200 900,0 0,-200 -900,0 z"
     style="fill:#e3e3e3"
     id="rect1313" />
  <path
     inkscape:connector-curvature="0"
     d="m 481.48,436.99 c 0,20.965 -20.4,38.01 -45.56,38.01 -25.12,0 -45.56,-17.045 -45.56,-38.01 0,-20.965 20.44,-38.01 45.56,-38.01 25.16,0 45.56,17.045 45.56,38.01 z M 439,125 l 5.36,0 c 30.08,0 55.2,6.99999 75.24,20.895 20.24,13.895 30.4,32.34 30.4,55.335 0,15.75 -3.72,29.085 -11.12,40.04 -7.24,10.815 -20.2,23.59 -38.76,38.29 -18.4,14.66499 -30.32,26.775 -35.88,36.505 -5.56,9.73 -8.36,20.37 -8.36,31.955 0,2.45 1.28,8.96 3.88,19.46 l -53.28,0 -5.24,-11.795 c -2.96,-6.825 -4.48,-12.74 -4.48,-17.85 0,-9.73 1.6,-19.04 4.72,-28 3.36,-8.96 8.2,-17.325 14.52,-25.025 6.32,-7.875 18.8,-20.40501 37.36,-37.52001 C 472.12,230.14 481.48,216.07 481.48,204.94 c 0,-21.59501 -17,-32.48 -51,-32.48 -16.52,0 -33.72,6.93 -51.72,20.685 L 350,148.415 C 372.84,133.54 402.52,125.69999 439,125 z"
     style="fill:#ffffff;fill-opacity:1;fill-rule:nonzero;stroke:none"
     id="path8" />
</svg>
