<svg xmlns="http://www.w3.org/2000/svg" width="114.89" height="130.15"><path d="M28.53 113.17L.19 96.24v-47.6C.2 18.92-.38.9.44.4c.72-.44 14.47 6.24 29.25 15.08 14.79 8.84 27.33 16.06 27.87 16.06.54 0 13.05-7.24 27.79-16.09C100.09 6.6 113.47-.44 114.21.02c.88.54.65 17.84.65 48.62v47.6l-28.57 16.99c-15.72 9.34-28.77 16.95-29 16.92-.24-.03-13.18-7.67-28.76-16.98zm26.01-34.54l-.35-42.25-22.66-13.7C19.06 15.13 8.1 8.94 7.17 8.92c-1.33-.04-1.6 8.83-1.33 42.2l.35 42.25 22.67 13.7c12.47 7.54 23.42 13.72 24.35 13.75 1.33.04 1.61-8.84 1.33-42.2zM28.53 89.1c-11.66-7.12-14.08-9.66-11.02-11.55 2.12-1.3 26.86 14.07 26.4 16.42-.67 3.52-2.75 2.86-15.38-4.87zm.33-20.94c-7.8-4.72-12-8.09-12-9.6 0-3.3 2.3-2.52 15.7 5.38 7.2 4.24 11.56 7.63 11.34 8.8-.67 3.46-2.9 2.78-15.04-4.58zm-.33-21.36c-11.54-6.92-15.43-11.29-10-11.23 3.6.04 24.92 13.75 25.42 16.34.72 3.74-2.4 2.71-15.42-5.11zm57.66 60.28l22.67-13.7.35-42.25c.28-33.37 0-42.24-1.33-42.2-.93.02-11.89 6.21-24.35 13.74l-22.67 13.7-.35 42.26c-.28 33.36 0 42.24 1.33 42.2.93-.03 11.89-6.21 24.35-13.75zM71.78 96.02a4.1 4.1 0 01-.92-2.53c0-2.1 24.95-17 26.68-15.94 3.1 1.91.61 4.5-10.91 11.37-14.44 8.6-13.7 8.25-14.85 7.1zm-.46-22.53c-1-2.58-2-1.75 12.73-10.46 12.14-7.17 14.8-7.93 14.8-4.24 0 1.5-23.6 16.75-25.93 16.75-.45 0-1.17-.92-1.6-2.05zM71.1 51.9c.5-2.6 21.82-16.3 25.42-16.34 5.44-.06 1.5 4.34-10.06 11.25-13.13 7.83-16.08 8.8-15.36 5.1z" fill="#fff"/></svg>
